<?xml version="1.0" encoding="UTF-8"?>
<svg id="Layer_1" data-name="Layer 1" xmlns="http://www.w3.org/2000/svg" viewBox="0 0 191.26 191.26">
  <defs>
    <style>
      .cls-1 {
        fill: #1428ff;
      }

      .cls-1, .cls-2 {
        stroke-width: 0px;
      }

      .cls-2 {
        fill: #d1d3d4;
      }
    </style>
  </defs>
  <circle class="cls-1" cx="95.63" cy="95.63" r="95.63"/>
  <g>
    <path class="cls-2" d="M153.42,65.92c-1.45,4.83-7.09,8.46-16.77,10.75-12.63,3.02-19.04,7.09-19.79,12.47-.84,6.72,8.17,12.63,11.28,14.46l.93-2.64c-3.66-2.27-10.05-7.07-9.48-11.48.35-2.8,3.66-6.83,17.71-10.14,10.69-2.53,16.94-6.79,18.77-12.63,1.67-5.49-1.23-10.89-3.26-13.79-.66.66-1.35,1.26-2.07,1.83,1.67,2.53,3.99,6.9,2.69,11.17Z"/>
    <path class="cls-2" d="M131.23,30.93c-1.13,1.12-2.16,2.35-3.06,3.66-6.72,10.3-14.41,19.93-22.96,28.77l-12.82,12.82c-12.26,12.27-23.89,25.12-34.9,38.56l-44.26,54.03,54.03-44.26c13.43-10.99,26.31-22.64,38.58-34.92l12.82-12.82c8.82-8.54,18.43-16.21,28.71-22.92,1.31-.91,2.54-1.94,3.66-3.08,7.32-7.42,8.97-17.87,3.5-23.36-2.29-2.18-5.35-3.36-8.51-3.26-4.52.16-8.87,1.78-12.38,4.63-.66-.68-1.3-1.34-1.96-1.96-10.07-9.69-19.96-14.12-29.52-13.22-21.81,2.09-37.55,30.91-48.83,55.79-4.23,9.34-8.64,13.97-13.04,13.7-8.62-.49-16.48-19.43-18.9-26.68-.22-.73-.98-1.14-1.71-.92-.04.01-.08.03-.12.04-.71.22-1.11.99-.89,1.7,0,0,0,.01,0,.02.37,1.14,9.16,27.89,21.37,28.58h.64c5.49,0,10.58-5.16,15.2-15.33,10.99-24.21,26.18-52.24,46.6-54.18,8.66-.82,17.78,3.31,27.23,12.29.64.62,1.3,1.26,1.94,1.92l-.44.38ZM145.16,34.43c.67-.04,1.33.18,1.83.62,1.19,1.19.64,4.38-1.83,7.47-1.59-2.22-3.17-4.3-4.76-6.26,1.38-1.05,3.03-1.69,4.76-1.83ZM138.26,38.09c1.64,1.98,3.3,4.11,4.98,6.41-3.2,2.75-6.57,3.41-7.82,2.16s-.55-5.22,2.84-8.62v.05Z"/>
    <path class="cls-2" d="M120.57,164.67l-1.48,4.19c-.59,1.63,3.94,4.74,10.09,6.92,2.99,1.14,6.14,1.81,9.34,1.98,1.57,0,2.6-.33,2.84-.99l1.48-4.17c-3.91-.64-7.75-1.63-11.48-2.97-3.73-1.33-7.34-2.99-10.78-4.96Z"/>
    <path class="cls-2" d="M164.18,114.94c-4.19-.63-8.31-1.68-12.3-3.11-7.98-2.84-15.86-7.21-19.54-11.9l-4.39,12.43c17.54,3.42,28.93,3.61,36.24,2.58Z"/>
    <path class="cls-2" d="M116.4,158.42c4.7,3.84,10.08,6.76,15.86,8.61,5.18,1.94,10.64,3.06,16.17,3.31,4.67,0,6.77-1.06,7.16-2.12l3.08-8.68c-4.63,1.46-9.48,2.13-14.34,1.98-9.38-.19-18.73-1.23-27.92-3.09Z"/>
    <path class="cls-2" d="M116.83,143.63l-3.41,9.63c-.17,1.02.15,2.05.86,2.8,5.6,1.19,33.78,6.74,45.21,1.15l4.34-12.19c-5.23,1.81-10.75,2.63-16.28,2.42-10.34-.22-20.64-1.5-30.72-3.81Z"/>
    <path class="cls-2" d="M121.85,129.51l-4.39,12.43c6.65,1.5,34.79,7.32,47.22.75l4.19-11.74c-5.17.87-10.4,1.26-15.64,1.17-10.51-.11-21-.99-31.38-2.62Z"/>
    <path class="cls-2" d="M155.47,117.32c-9.46-.17-18.89-1.25-28.14-3.22l-4.85,13.66c29.3,4.28,43.47,1.96,47.08,1.15l4.96-14.01c-1.24.28-2.5.42-3.77.44-4.96,1.45-10.11,2.11-15.27,1.98Z"/>
    <path class="cls-2" d="M150.56,108.38c.73.29,1.5.57,2.27.84,5.43,2.06,11.17,3.22,16.97,3.42,4.32,0,7.32-1.01,8.06-3.04.86-2.44-1.83-5.8-6.52-9.06l-.86,2.38c-.44,1.28-1.83,2.82-5.49,2.82-3.52-.17-6.98-.89-10.27-2.14-2.89-.99-5.64-2.33-8.2-3.99-3.11-2.12-4.32-4.28-3.55-6.43l.84-2.38c-.95,0-1.83-.13-2.71-.13-4.32,0-7.32,1.01-8.06,3.04-1.32,3.9,6.34,10.27,17.52,14.67Z"/>
    <path class="cls-2" d="M155.71,101c3,1.14,6.15,1.8,9.36,1.98,1.57,0,2.6-.33,2.84-.99l1.83-5.49c-.51.08-1.03.13-1.56.13-3.52-.17-6.98-.89-10.27-2.14-2.78-.97-7.91-3.08-10.47-5.88l-1.83,5.38c-.53,1.72,3.97,4.82,10.11,7.01Z"/>
    <path class="cls-2" d="M150.14,87.42c.85.69,1.76,1.31,2.73,1.83,1.94,1.07,3.96,1.97,6.04,2.71,3,1.15,6.15,1.82,9.36,1.98,1.56,0,2.6-.31,2.84-.99.57-1.61-3.95-4.72-10.11-6.9-2.99-1.15-6.14-1.81-9.34-1.98-1.57,0-2.62.31-2.84.99-.11.53.06,1.08.46,1.45.26.33.55.63.86.92Z"/>
  </g>
</svg>